<svg width="48" height="48" viewBox="0 0 48 48" fill="none" xmlns="http://www.w3.org/2000/svg">
<circle cx="24" cy="24" r="24" fill="#E7E7E7"/>
<g clip-path="url(#clip0_557_131090)">
<path d="M23.379 22.9037C23.5613 23.0303 23.778 23.0981 24 23.0981C24.2219 23.0981 24.4386 23.0303 24.621 22.9037L32.0892 17.3021C32.1402 17.2622 32.182 17.2118 32.2119 17.1543C32.2417 17.0968 32.2588 17.0335 32.2621 16.9688C32.2653 16.9041 32.2546 16.8395 32.2307 16.7793C32.2068 16.7191 32.1701 16.6647 32.1234 16.6199C31.6272 16.1599 30.9765 15.903 30.3 15.8999H17.7C17.0234 15.903 16.3727 16.1599 15.8766 16.6199C15.8276 16.6644 15.7892 16.7192 15.7639 16.7804C15.7387 16.8415 15.7273 16.9075 15.7305 16.9736C15.7338 17.0396 15.7517 17.1042 15.7828 17.1625C15.814 17.2209 15.8577 17.2716 15.9108 17.3111L23.379 22.9037Z" fill="black"/>
<path d="M25.6992 24.3422C25.206 24.7026 24.6109 24.8968 24 24.8968C23.3891 24.8968 22.794 24.7026 22.3008 24.3422L15.72 19.4084C15.6531 19.3582 15.5736 19.3277 15.4904 19.3202C15.4072 19.3127 15.3235 19.3285 15.2488 19.3659C15.174 19.4032 15.1111 19.4607 15.0672 19.5318C15.0233 19.6029 15 19.6848 15 19.7684V29.4002C15 30.1162 15.2845 30.803 15.7908 31.3093C16.2972 31.8157 16.9839 32.1002 17.7 32.1002H30.3C31.0161 32.1002 31.7028 31.8157 32.2092 31.3093C32.7155 30.803 33 30.1162 33 29.4002V19.7684C33 19.6848 32.9767 19.6029 32.9328 19.5318C32.8889 19.4607 32.826 19.4032 32.7512 19.3659C32.6765 19.3285 32.5928 19.3127 32.5096 19.3202C32.4264 19.3277 32.3469 19.3582 32.28 19.4084L25.6992 24.3422Z" fill="black"/>
</g>
<defs>
<clipPath id="clip0_557_131090">
<rect width="18" height="18" fill="white" transform="translate(15 15)"/>
</clipPath>
</defs>
</svg>
