<svg width="120" height="120" viewBox="0 0 120 120" fill="none" xmlns="http://www.w3.org/2000/svg">
<g id="Alerts Warning Triangle" clip-path="url(#clip0_50434_298732)">
<g id="Group">
<path id="Vector" d="M60.0008 28.8515C57.7635 28.8312 55.5798 29.5364 53.7769 30.8614C51.9741 32.1865 50.6492 34.0601 50.0008 36.2015C49.3172 38.4089 48.914 40.6935 48.8008 43.0015C48.9281 46.2031 49.2622 49.393 49.8008 52.5515C50.5508 57.5515 51.6508 62.5515 52.5508 67.5515C53.9508 75.7515 54.5008 77.5515 58.0508 80.2515C59.1828 80.8808 60.5005 81.0904 61.7719 80.8435C63.0433 80.5965 64.1867 79.9088 65.0008 78.9015C66.7475 76.6195 68.0377 74.0221 68.8008 71.2515C69.7508 68.5015 70.6008 65.7015 71.4008 62.9015C72.5508 58.7015 73.5508 54.4515 74.5008 50.3015C75.1247 47.906 75.5593 45.4652 75.8008 43.0015C75.915 41.0673 75.643 39.1296 75.0008 37.3015C73.552 34.6217 71.3748 32.4063 68.7206 30.9111C66.0664 29.4159 63.0435 28.7019 60.0008 28.8515ZM69.4508 49.2515C68.7508 53.4015 67.9508 57.6015 67.0508 61.7515C66.4008 64.5515 65.7508 67.2515 64.9508 69.9515C64.5001 72.2393 63.5994 74.4148 62.3008 76.3515C62.0268 76.7504 61.6204 77.0395 61.1537 77.1676C60.687 77.2958 60.1901 77.2546 59.7508 77.0515C57.7508 75.6015 57.8508 76.0515 56.3008 67.0515C55.5008 62.0515 55.0508 57.0515 54.6008 52.0515C54.2815 49.0963 54.1646 46.1227 54.2508 43.1515C54.2413 41.3249 54.4939 39.5064 55.0008 37.7515C55.8508 34.8015 59.0008 34.3015 62.0008 34.7015C63.5635 34.7978 65.0785 35.2769 66.4126 36.0965C67.7466 36.916 68.8586 38.0511 69.6508 39.4015C70.0228 40.495 70.1922 41.6472 70.1508 42.8015C69.9955 44.9722 69.678 47.1283 69.2008 49.2515H69.4508Z" fill="#191919"/>
<path id="Vector_2" d="M58.9991 86.9024C56.8029 87.1363 54.703 87.9281 52.8991 89.2024C51.8651 89.927 51.0055 90.8729 50.3828 91.9713C49.7601 93.0697 49.3899 94.293 49.2991 95.5524C49.1932 96.8872 49.4159 98.2277 49.9475 99.4566C50.4792 100.686 51.3038 101.766 52.3491 102.602C53.7905 103.604 55.4534 104.241 57.1952 104.459C58.9369 104.677 60.7055 104.468 62.3491 103.852C64.0555 103.294 65.5613 102.248 66.6808 100.845C67.8002 99.4409 68.4844 97.7403 68.6491 95.9524C68.7154 94.9317 68.562 93.9087 68.1991 92.9524C67.6511 91.0052 66.4188 89.3212 64.7287 88.2097C63.0385 87.0983 61.0041 86.6341 58.9991 86.9024ZM64.9991 95.5024C64.7249 96.3643 64.2221 97.1358 63.5441 97.7345C62.8661 98.3333 62.0384 98.7369 61.1491 98.9024C60.3126 99.1793 59.4217 99.2512 58.5516 99.112C57.6814 98.9728 56.8575 98.6265 56.1491 98.1024C55.8089 97.8256 55.5372 97.4741 55.3551 97.0752C55.173 96.6763 55.0854 96.2407 55.0991 95.8024C55.0568 95.2914 55.1241 94.7772 55.2965 94.2943C55.469 93.8114 55.7426 93.3709 56.0991 93.0024C57.1175 91.9455 58.3922 91.1704 59.7991 90.7524C62.6991 90.0524 63.6491 90.3024 64.7991 93.8024C65.0189 94.3404 65.0881 94.9281 64.9991 95.5024Z" fill="#191919"/>
<path id="Vector_3" d="M119.649 98.2019C118.453 93.1211 116.967 88.113 115.199 83.2019C113.527 77.7614 111.351 72.4886 108.699 67.4519C104.999 60.0019 100.449 53.0519 96.5495 45.8519C93.3995 40.0019 90.9995 34.5519 87.8495 29.1519C86.4684 26.7379 84.9318 24.4164 83.2495 22.2019C79.7561 16.6439 75.61 11.5241 70.8995 6.95186C68.3147 4.67094 64.9428 3.48718 61.4995 3.65186C59.983 3.8371 58.5291 4.36733 57.2495 5.20186C55.715 6.16731 54.2604 7.25412 52.8995 8.45186C50.316 10.5361 47.9384 12.8635 45.7995 15.4019C42.6995 19.0519 39.9995 23.0519 37.1995 27.0519L27.1995 40.5019C23.1237 46.9619 19.4016 53.6384 16.0495 60.5019C12.7161 67.3685 9.66613 74.3519 6.89947 81.4519C5.54947 85.0019 4.04947 88.4519 2.74947 92.0519C-0.900533 102.552 -1.30053 106.302 4.49947 109.552C9.25131 111.573 14.338 112.692 19.4995 112.852L24.9995 113.402C34.0495 114.002 43.0995 115.102 52.1995 115.802C56.0995 116.102 60.0495 116.302 63.9995 116.402C66.9995 116.402 69.9995 116.402 72.9995 116.402C79.8995 116.402 86.7995 115.752 93.6995 115.552C100.185 115.925 106.686 115.146 112.899 113.252C114.496 112.626 115.931 111.649 117.099 110.395C118.267 109.14 119.139 107.639 119.649 106.002C120.196 103.431 120.196 100.773 119.649 98.2019ZM114.199 104.402C113.727 105.633 112.937 106.716 111.909 107.542C110.882 108.368 109.653 108.906 108.349 109.102C103.416 110.114 98.3843 110.567 93.3495 110.452C86.4495 110.752 79.5495 111.352 72.6495 111.652C69.7495 111.652 66.8495 111.652 63.8995 111.652C60.0661 111.652 56.2161 111.502 52.3495 111.202C43.1495 110.902 34.0495 110.002 24.9995 109.502L19.7495 109.052C15.1436 108.981 10.5879 108.084 6.29947 106.402C3.84947 105.052 1.94947 103.452 5.79947 93.0519C7.09947 89.5519 8.69947 86.1019 10.0995 82.6519C12.9495 75.6519 16.0495 68.8519 19.4995 62.2019C22.9144 55.5427 26.7038 49.0824 30.8495 42.8519L40.9995 30.0019C43.7995 26.1519 46.4995 22.4019 49.5495 18.9019C51.5473 16.6476 53.739 14.573 56.0995 12.7019C57.3251 11.6087 58.6285 10.6061 59.9995 9.70186C60.6136 9.29274 61.3163 9.03565 62.0495 8.95186C63.4741 9.04319 64.8627 9.43849 66.1219 10.1112C67.381 10.7839 68.4816 11.7184 69.3495 12.8519C72.8001 16.8882 75.9582 21.1657 78.7995 25.6519C80.8597 28.3845 82.6989 31.277 84.2995 34.3019C86.7995 38.9519 88.8995 43.7019 91.5495 48.6019C95.4495 55.7519 99.8995 62.8519 103.649 70.2019C106.226 74.9249 108.352 79.8801 109.999 85.0019C110.999 88.4019 112.949 92.9018 114.049 97.3018C114.646 99.6253 114.698 102.055 114.199 104.402Z" fill="#F2545B"/>
</g>
</g>
<defs>
<clipPath id="clip0_50434_298732">
<rect width="120" height="120" fill="white"/>
</clipPath>
</defs>
</svg>
