<svg width="16" height="16" viewBox="0 0 16 16" fill="none" xmlns="http://www.w3.org/2000/svg">
<g id="Tik Tok_white">
<path id="Shape" fill-rule="evenodd" clip-rule="evenodd" d="M5.02206 12.1635C5.31909 12.3202 5.64991 12.402 5.98572 12.4019C7.10431 12.4019 8.01747 11.5121 8.05869 10.4031L8.06281 0.5H10.5336C10.5338 0.710339 10.5534 0.920213 10.592 1.12698H8.78291V1.12732H11.254C11.2537 1.95613 11.5541 2.75693 12.0995 3.38099L12.1002 3.38179C12.6566 3.74525 13.3069 3.9385 13.9715 3.93788V4.48819C14.2041 4.538 14.4446 4.56453 14.6919 4.56453V7.036C13.4583 7.03744 12.2556 6.65066 11.2541 5.93047V10.9521C11.2541 13.4597 9.21372 15.5 6.70581 15.5C6.08128 15.5002 5.46344 15.3713 4.891 15.1215C4.31897 14.872 3.80466 14.507 3.38017 14.0495L3.37923 14.0488C2.20636 13.2254 1.4375 11.8635 1.4375 10.3251C1.4375 7.81722 3.47783 5.77656 5.98572 5.77656C6.19081 5.77753 6.39556 5.79247 6.59863 5.82122V6.40628C6.61291 6.406 6.62709 6.4055 6.64134 6.40503C6.66272 6.40428 6.68416 6.40353 6.70581 6.40353C6.91088 6.4045 7.11566 6.41944 7.31869 6.44819V8.97088C7.12494 8.91006 6.91984 8.87466 6.70581 8.87466C6.15506 8.87531 5.62706 9.09441 5.23766 9.48388C4.84825 9.87334 4.62925 10.4014 4.62872 10.9521C4.62875 11.3871 4.76622 11.811 5.02153 12.1632L5.02206 12.1635ZM2.45759 12.5749C2.66867 13.1249 2.98369 13.6238 3.37823 14.0478C2.97566 13.617 2.6648 13.1159 2.45759 12.5749Z" fill="#111111"/>
</g>
</svg>
